<?xml version="1.0" encoding="UTF-8"?>
<svg xmlns="http://www.w3.org/2000/svg" version="1.1" viewBox="0 0 231 40">
  <defs>
    <style>
      .cls-1 {
        fill: #fff;
      }
    </style>
  </defs>
  <!-- Generator: Adobe Illustrator 28.7.3, SVG Export Plug-In . SVG Version: 1.2.0 Build 164)  -->
  <g>
    <g id="Layer_1">
      <g>
        <path class="cls-1" d="M77.4,38.9V14.9c0-1.9-.5-3.1-1.4-4.1-1-1-2.4-1.5-4.1-1.5s-.3,0-.4,0v23.9c0,1.9.5,3.1,1.4,4,1,1,2.4,1.5,4.1,1.5s.3,0,.4,0M77.9,3.5c0-2-1.6-3.5-3.5-3.5s-3.5,1.6-3.5,3.5,1.6,3.6,3.5,3.6,3.5-1.6,3.5-3.6M60.2,27.3v6c0,1.9.5,3.1,1.4,4,1,1,2.4,1.5,4.1,1.5s.3,0,.4,0v-12.9c0-5.5-1.5-9.3-4.1-12.2-2.7-3-6.8-4.7-11.5-4.7-9,0-15.3,6.7-15.3,15.5s5.8,14.4,13.3,14.4,9.3-3.5,9.3-7.6-.5-3.2-1.5-4.7c-.8,4.4-3.2,6.8-7.1,6.8s-7.8-3.2-7.8-9,3.6-9.6,9.1-9.6,4.9,1,6.6,2.6c2,2,3.1,5,3.1,9.8M106.4,30.9c0,0-.1,0-.2-.1-4.2-5.6-12-16-13.7-18.2-1.8-2.4-3.2-3.1-5-3.1s-2.5.5-3.2,1.3c-.8.9-1.3,2.4-1.3,4v18.5c0,1.9.5,3.1,1.4,4,1,1,2.3,1.5,4,1.5s.2,0,.3,0v-21.2c0-.2,0-.2.2-.2s.1,0,.2.1c2.5,3.3,11.9,15.9,13.8,18.2,1.8,2.4,3.2,3.2,5,3.2s2.5-.5,3.2-1.3c.8-.9,1.3-2.3,1.3-4V15c0-1.9-.5-3.1-1.4-4.1-1-1-2.3-1.5-4-1.5s-.2,0-.3,0v21.3c0,.2,0,.2-.2.2M13.3,33.2c-.2,0-.4,0-.4-.2s0-.2.2-.3c1.8-1.5,13.8-11.4,15.7-12.9,3.2-2.6,3.9-3.9,3.9-5.7s-.5-2.3-1.3-2.9c-1-.8-2.4-1.3-4.7-1.3H6.1v.3c0,1.1.2,2.3.8,3,.8,1.2,2.4,1.9,4.5,1.9h13.4c.2,0,.4,0,.4.2s0,.2-.2.3c-1.9,1.6-13,10.7-15.8,12.9-3.2,2.6-3.8,3.9-3.8,5.8s.5,2.3,1.3,2.9c1,.8,2.4,1.3,4.8,1.3h21.4v-.2c0-1.5-.4-2.9-1.3-3.7-1-1-2.4-1.3-4.9-1.3h-13.3Z"/>
        <path class="cls-1" d="M127,15.8h-6.7c-.8,0-1.4-.6-1.4-1.4v-3.4c0-.9.5-1.4,1.4-1.4h17.9c2.4,0,3.8,1.3,3.8,3.6v1c0,.9-.7,1.5-1.5,1.5h-6.7v21.4c0,.9-.5,1.4-1.4,1.4h-4c-.9,0-1.4-.5-1.4-1.4V15.8ZM128.7,14v22.8h3.3V14h8.3v-.8c0-1.3-.7-1.9-2.1-1.9h-17.6v2.7h8.1Z"/>
        <path class="cls-1" d="M153.4,32.4h8.2c2.4,0,3.8,1.3,3.8,3.6v1c0,.9-.6,1.5-1.5,1.5h-15.7c-.9,0-1.4-.6-1.4-1.4V11c0-.8.6-1.4,1.4-1.4h13.1c2.4,0,3.8,1.3,3.8,3.6v1c0,.9-.7,1.5-1.6,1.5h-10v5.3h6.8c2.4,0,3.8,1.3,3.8,3.5v1.1c0,.9-.6,1.5-1.5,1.5h-9.1v5.3ZM151.7,34.1v-8.7h10.6v-.9c0-1.2-.6-1.8-2.1-1.8h-8.5v-8.7h11.6v-.9c0-1.3-.7-1.9-2.1-1.9h-12.8v25.5h15.3v-.9c0-1.3-.6-1.9-2.1-1.9h-9.9Z"/>
        <path class="cls-1" d="M193,16.3c-.3.8-.6,1.2-1.3,1.2s-.7-.1-1.9-.7c-1.7-.9-3.6-1.3-5.7-1.3-4.8,0-7.6,3.1-7.6,8.8s2.8,8.5,7.7,8.5,5.3-1.1,7-3c.4-.4.9-.6,1.4-.6,1,0,1.6.8,1.6,2,0,4.3-4.8,7.9-10.6,7.8-8.4,0-13.9-5.8-13.9-14.8s5.7-15.1,14.2-15.1,9.5,1.9,9.5,4.6,0,.9-.2,1.3l-.3,1.2ZM191.4,15.6l.3-1c.1-.3.1-.6.1-.8,0-1.7-3.5-3-7.8-3-7.6,0-12.6,5.3-12.6,13.4s4.7,13.1,12.2,13.1,8.9-2.8,8.9-6.2v-.2q0,0-.1.1c-1.6,2-5.1,3.4-8.1,3.4-5.9,0-9.4-3.9-9.4-10.2s3.4-10.5,9.2-10.5,4.6.5,6.5,1.5c.6.4.7.4.9.5"/>
        <path class="cls-1" d="M206,27.2v9.9c0,.9-.6,1.4-1.4,1.4h-3.9c-.9,0-1.4-.6-1.4-1.4V11c0-.8.6-1.4,1.4-1.4h.5c3.2,0,4.8,1.8,4.8,5.1v6.4h9.4v-10.2c0-.9.5-1.4,1.4-1.4h.5c3.2,0,4.8,1.7,4.8,5.1v22.4c0,.8-.5,1.4-1.3,1.4h-4c-.9,0-1.4-.5-1.4-1.4v-9.9h-9.4ZM204.2,25.5h12.8v11.3h3.3V14.7c0-2.4-.9-3.4-3.1-3.4h-.2v11.6h-12.8v-8.2c0-2.4-.9-3.4-3.1-3.4h-.2v25.5h3.3v-11.3Z"/>
      </g>
    </g>
  </g>
</svg>